<svg xmlns="http://www.w3.org/2000/svg" fill="none" viewBox="0 0 50 50"><path fill="#00004C" fill-rule="evenodd" d="M38.928 39.786A20.256 20.256 0 0 0 45.313 25c0-11.218-9.095-20.313-20.313-20.313C13.782 4.688 4.687 13.783 4.687 25a20.256 20.256 0 0 0 6.385 14.786A20.243 20.243 0 0 0 25 45.312c5.391 0 10.291-2.1 13.928-5.526Zm-26.126-2.677A15.596 15.596 0 0 1 25 31.25c4.934 0 9.334 2.287 12.198 5.859A17.135 17.135 0 0 1 25 42.187a17.135 17.135 0 0 1-12.198-5.078Zm20.01-18.359a7.812 7.812 0 1 1-15.624 0 7.812 7.812 0 0 1 15.625 0Z" clip-rule="evenodd"/></svg>