<svg xmlns="http://www.w3.org/2000/svg" fill="none" viewBox="0 0 50 50"><path fill="#00004C" d="M24.375 5.844a1.563 1.563 0 0 1 1.25 0 126.367 126.367 0 0 1 21.937 12.322 1.562 1.562 0 0 1-.482 2.785 104.056 104.056 0 0 0-20.628 8.15l-.007.004c-.236.124-.472.25-.707.375a1.563 1.563 0 0 1-1.473 0 103.582 103.582 0 0 0-8.64-4.118v-.466c0-.274.14-.517.358-.648 3.135-1.9 6.37-3.653 9.694-5.25a1.563 1.563 0 0 0-1.354-2.816 116.957 116.957 0 0 0-9.96 5.393 3.87 3.87 0 0 0-1.788 2.558A103.899 103.899 0 0 0 2.92 20.95a1.562 1.562 0 0 1-.481-2.785A126.36 126.36 0 0 1 24.375 5.844Z"/><path fill="#00004C" d="M27.21 32.236a100.94 100.94 0 0 1 15.969-6.839c.28 2.948.458 5.925.532 8.927a1.562 1.562 0 0 1-.96 1.48 99.736 99.736 0 0 0-16.884 9.045c-.525.35-1.209.35-1.733 0a99.734 99.734 0 0 0-16.885-9.045 1.563 1.563 0 0 1-.96-1.48c.074-3.003.253-5.98.532-8.927 1.92.632 3.813 1.32 5.679 2.062v2.647a3.124 3.124 0 0 0-.291 5.223 10.881 10.881 0 0 1-.828 2.312c.943.445 1.878.904 2.805 1.378.527-1.074.91-2.2 1.148-3.35a3.126 3.126 0 0 0 .291-5.563v-1.344c2.44 1.067 4.83 2.226 7.167 3.474a4.688 4.688 0 0 0 4.418 0Z"/><path fill="#00004C" d="M9.296 40.546a10.925 10.925 0 0 0 2.085-2.905c.943.445 1.878.904 2.805 1.378a14.05 14.05 0 0 1-2.68 3.737 1.563 1.563 0 0 1-2.21-2.21Z"/></svg>