<svg xmlns="http://www.w3.org/2000/svg" fill="none" viewBox="0 0 50 50"><path fill="#00004C" d="M33.78 43.255c-5.438-2.896-7.603-8.135-1.735-9.193-3.078-.671-4.45-1.806-2.289-3.537 1.536-.697 2.981-1.72 4.302-3.019.648.466 1.251.978 1.8 1.533a28 28 0 0 1-1.242 1.19l1.58 2.887C43.908 26.1 47.524 15.613 46.922 5.33l-2.668.775c.043.742.06 1.483.054 2.22h-2.495a40.52 40.52 0 0 0 .105-2.908h-.99c-.274-1.331-7.312-2.398-15.956-2.398-8.643 0-15.68 1.067-15.954 2.398h-.99c0 .983.037 1.953.105 2.908H5.606c-.012-.777 0-1.553.038-2.33l-2.614-.61c-.833 10.4 3.218 20.523 10.673 27.73l1.525-2.885c-.41-.34-.803-.69-1.183-1.047.57-.597 1.2-1.145 1.882-1.642 1.312 1.282 2.745 2.293 4.267 2.986 2.162 1.73.789 2.865-2.29 3.537 5.868 1.056 3.704 6.295-1.734 9.19-2.36.41-3.825.98-3.825 1.613 0 1.242 5.653 2.25 12.627 2.25 6.973 0 12.626-1.008 12.626-2.25 0-.633-1.464-1.203-3.821-1.612h.003ZM24.977 3.672c6.321 0 11.476.775 11.746 1.745l.01.04a.173.173 0 0 1 .003.04c0 .22-.252.431-.714.628-.131.056-.281.111-.445.164a8.886 8.886 0 0 1-.694.192 17.648 17.648 0 0 1-1.016.21l-.38.065c-.065.011-.13.02-.196.032-.333.051-.685.1-1.055.145-.073.01-.148.017-.223.026-.529.061-1.091.116-1.683.163a60.605 60.605 0 0 1-2.699.153 72.77 72.77 0 0 1-2.656.047 72.84 72.84 0 0 1-4.313-.127 61.69 61.69 0 0 1-1.042-.073 47.212 47.212 0 0 1-1.683-.163l-.223-.026c-.37-.045-.722-.094-1.055-.145-.067-.011-.132-.02-.197-.032-.13-.022-.256-.042-.38-.065l-.182-.033c-.3-.056-.578-.116-.833-.177a10.12 10.12 0 0 1-.694-.192 5.293 5.293 0 0 1-.446-.164c-.461-.195-.714-.408-.714-.628 0-.014.001-.027.003-.04a.16.16 0 0 1 .009-.04c.27-.97 5.427-1.745 11.747-1.745h.005Zm19.198 7.267c-.545 5.813-2.705 11.325-6.34 15.873a15.316 15.316 0 0 0-1.741-1.653c2.71-3.643 4.664-8.598 5.447-14.22h2.634Zm-35.764 0c.786 5.64 2.748 10.61 5.473 14.258-.68.56-1.306 1.17-1.868 1.825-3.77-4.53-5.757-10.203-6.274-16.083h2.669Z"/><path fill="#D9D9D9" d="m22 15-6 1 4 4.5-1 6.5 6-3 5.5 3-1-6.5 5-4.5-6.5-1-3-6-3 6Z"/></svg>