<svg xmlns="http://www.w3.org/2000/svg" fill="none" viewBox="0 0 50 50"><path fill="#00004C" fill-rule="evenodd" d="M15.625 10.938a6.25 6.25 0 0 1 6.25-6.25h6.25a6.25 6.25 0 0 1 6.25 6.25v.426c1.943.178 3.87.41 5.78.697 3.029.453 5.157 3.088 5.157 6.076v6.319c0 2.523-1.528 4.9-4.033 5.734A51.51 51.51 0 0 1 25 32.812c-5.686 0-11.16-.92-16.279-2.622-2.505-.833-4.034-3.21-4.034-5.734v-6.32c0-2.987 2.13-5.622 5.159-6.075 1.91-.286 3.836-.519 5.779-.697v-.427Zm15.625 0v.189a103.136 103.136 0 0 0-12.5 0v-.19c0-1.725 1.4-3.124 3.125-3.124h6.25c1.726 0 3.125 1.399 3.125 3.125ZM25 28.125A1.563 1.563 0 1 0 25 25a1.563 1.563 0 0 0 0 3.125Z" clip-rule="evenodd"/><path fill="#00004C" d="M6.25 38.333v-5.825c.465.255.96.473 1.485.647A54.64 54.64 0 0 0 25 35.938a54.64 54.64 0 0 0 17.265-2.783 8.978 8.978 0 0 0 1.485-.647v5.825c0 3.025-2.182 5.683-5.257 6.09-4.415.587-8.919.89-13.493.89s-9.078-.303-13.493-.89c-3.075-.407-5.257-3.065-5.257-6.09Z"/></svg>