<svg xmlns="http://www.w3.org/2000/svg" fill="none" viewBox="0 0 46 46"><path fill="#fff" d="M12.207 6.034 1.51 17.024C.736 17.781.46 18.421.46 20.12v4.446c0 1.693.276 2.277 1.05 3.032l10.697 11.044c.99 1.053 1.363.3 1.363-1.864V30.88c0-2.747-.282-3.162-1.207-4.036l-4.979-4.56v-.235l5.008-4.555c.896-.884 1.178-1.349 1.178-4.036v-5.55c0-2.163-.372-2.927-1.363-1.873Zm9.659 37.003 8.033-40.904C30.182.664 29.994.08 29.127.08h-3.459c-.901 0-1.24.415-1.578 2.053l-8.073 40.904c-.274 1.404-.09 2.043.806 2.043h3.465c.896 0 1.234-.46 1.578-2.043Zm10.488-35.19v5.73c0 2.692.245 3.151 1.176 4.03l4.976 4.561v.29l-4.947 4.5c-.96.874-1.205 1.344-1.205 4.036v5.784c0 2.163.338 2.863 1.358 1.873l10.697-11.053c.777-.755 1.052-1.34 1.052-3.032V20.06c0-1.633-.275-2.278-1.052-3.037L33.712 6.034c-1.02-1.054-1.358-.29-1.358 1.813Z"/></svg>