<svg xmlns="http://www.w3.org/2000/svg" fill="none" viewBox="0 0 100 100"><path fill="#000" d="M12.5 64.375s12.89-6.25 25.781-6.25l9.688-29.922c.39-1.562 1.406-2.5 2.578-2.5 1.25 0 2.344 1.016 2.656 2.5l9.688 29.922c15.312 0 25.78 6.25 25.78 6.25L66.798 5c-.625-1.797-1.719-2.89-3.125-2.89H37.5c-1.406 0-2.422 1.093-3.125 2.89L12.5 64.375Z"/><path fill="url(#a)" d="M37.266 83.672c-4.297-3.906-5.625-12.266-3.828-18.281 3.124 3.828 7.5 5 12.03 5.703 6.954 1.015 13.75.625 20.235-2.5l2.188-1.328a14.062 14.062 0 0 1-5.625 15.625l-4.297 2.968c-4.375 2.97-5.625 6.407-3.907 11.485l.157.547a10.937 10.937 0 0 1-5.157-4.375 12.344 12.344 0 0 1-2.03-6.72c0-1.171 0-2.343-.157-3.515-.39-2.89-1.719-4.14-4.297-4.219-2.578-.078-4.61 1.563-5.156 4.063l-.156.547Z"/><defs><linearGradient id="a" x1="50.547" x2="60.469" y1="93.125" y2="60.469" gradientUnits="userSpaceOnUse"><stop stop-color="#D83333"/><stop offset="1" stop-color="#F041FF"/></linearGradient></defs></svg>