<svg xmlns="http://www.w3.org/2000/svg" fill="none" viewBox="0 0 100 100"><path fill="#fff" fill-rule="evenodd" d="M47.52 5.66a5 5 0 0 1 4.96 0l8.75 5a5 5 0 1 1-4.96 8.68L50 15.76l-6.27 3.58a5 5 0 1 1-4.96-8.68l8.75-5ZM28.09 22.52a5 5 0 0 1-1.86 6.82l-1.15.66 1.15.66a5 5 0 1 1-4.96 8.68L20 38.615V40a5 5 0 0 1-10 0V30a4.98 4.98 0 0 1 2.6-4.39l8.67-4.95a5 5 0 0 1 6.82 1.86Zm43.82 0a5 5 0 0 1 6.82-1.86l8.665 4.95A5.01 5.01 0 0 1 90 30v10a5 5 0 0 1-10 0v-1.385l-1.27.725a5 5 0 1 1-4.96-8.68l1.15-.66-1.15-.66a5 5 0 0 1-1.86-6.82Zm-35 20a5 5 0 0 1 6.82-1.86L50 44.24l6.27-3.58a4.999 4.999 0 1 1 4.96 8.68L55 52.9V60a5 5 0 0 1-10 0v-7.1l-6.23-3.56a5 5 0 0 1-1.86-6.82ZM15 55a5 5 0 0 1 5 5v7.1l6.23 3.56a5 5 0 1 1-4.96 8.68l-8.75-5A5 5 0 0 1 10 70V60a5 5 0 0 1 5-5Zm70 0a5 5 0 0 1 5 5v10a5 5 0 0 1-2.52 4.34l-8.75 5a5 5 0 1 1-4.96-8.68L80 67.1V60a5 5 0 0 1 5-5ZM36.91 82.52a5 5 0 0 1 6.82-1.86l1.27.725V80a5 5 0 0 1 10 0v1.385l1.27-.725a4.999 4.999 0 1 1 4.96 8.68l-8.675 4.96a4.975 4.975 0 0 1-5.11 0l-8.675-4.96a5 5 0 0 1-1.86-6.82Z" clip-rule="evenodd"/></svg>