<svg xmlns="http://www.w3.org/2000/svg" fill="none" viewBox="0 0 126 100"><g clip-path="url(#a)"><path fill="#7952B3" fill-rule="evenodd" d="M26.067.012c-7.16 0-12.46 6.268-12.222 13.065.227 6.53-.069 14.988-2.198 21.885C9.511 41.88 5.9 46.262 0 46.824v6.352c5.9.564 9.51 4.944 11.647 11.862 2.13 6.897 2.425 15.355 2.197 21.885-.237 6.796 5.062 13.065 12.224 13.065h73.376c7.161 0 12.459-6.268 12.222-13.065-.228-6.53.068-14.988 2.197-21.885 2.137-6.918 5.739-11.3 11.639-11.862v-6.352c-5.9-.564-9.502-4.944-11.639-11.862-2.129-6.896-2.425-15.355-2.197-21.885C111.903 6.28 106.605.012 99.444.012H26.066h.001Zm59.02 61.542c0 9.36-6.982 15.035-18.568 15.035H46.797a2.127 2.127 0 0 1-2.127-2.127V25.538a2.127 2.127 0 0 1 2.127-2.127h19.61c9.66 0 16 5.233 16 13.267 0 5.639-4.265 10.687-9.698 11.571v.294c7.397.812 12.377 5.935 12.377 13.01Zm-20.718-31.4H53.124v15.884h9.47c7.323 0 11.36-2.949 11.36-8.219-.001-4.938-3.472-7.665-9.585-7.665ZM53.124 52.34v17.504h11.659c7.623 0 11.66-3.059 11.66-8.807 0-5.749-4.15-8.698-12.15-8.698h-11.17Z" clip-rule="evenodd"/></g><defs><clipPath id="a"><path fill="#fff" d="M0 0h125.502v100H0z"/></clipPath></defs></svg>