<svg xmlns="http://www.w3.org/2000/svg" fill="none" viewBox="0 0 100 100"><g clip-path="url(#a)"><path fill="#EE4323" d="M35.375 100a19.122 19.122 0 0 1-11.346-15.933 22.497 22.497 0 0 1 10.208-17.692 8.131 8.131 0 0 0 .625 7.375 6.773 6.773 0 0 0 6.896 2.692c3.759-1.059 5.959-4.959 4.9-8.717a7.156 7.156 0 0 0-2.15-3.408A15.663 15.663 0 0 1 38.883 50a14.678 14.678 0 0 1 4.567-7.438c-1.688 4.5 3.07 8.942 6.267 11.126a165.943 165.943 0 0 1 16.35 11.191A22.022 22.022 0 0 1 74.4 83.63c-1.283 7.667-6.708 14-14.104 16.375 14.792-3.291 30.042-15.041 30.333-31.708-.291-13.334-8.25-25.3-20.416-30.75h-.542c.27.654.4 1.358.375 2.066a7.572 7.572 0 0 0 0-1.375 6.623 6.623 0 0 1 0 1.625 7.079 7.079 0 0 1-8.55 5.2 7.067 7.067 0 0 1-3.85-2.458c-4.875-6.25 0-13.362.816-20.237A25.713 25.713 0 0 0 47.822.033c3.567 5.946-1.183 13.75-4.638 18.192-3.458 4.442-8.458 7.75-12.533 11.625a102.09 102.09 0 0 0-12.03 13.375 40.743 40.743 0 0 0-8.333 34.187c3.484 11.625 13.146 20.359 25.063 22.625h.067l-.042-.037Z"/></g><defs><clipPath id="a"><path fill="#fff" d="M0 0h100v100H0z"/></clipPath></defs></svg>