<svg xmlns="http://www.w3.org/2000/svg" width="105" height="53" fill="none"><path fill="#00004C" d="M47.81 20.182H33.79c-.1-1.16-.365-2.212-.796-3.157a7.128 7.128 0 0 0-1.74-2.436c-.729-.696-1.616-1.226-2.66-1.591-1.044-.381-2.229-.572-3.554-.572-2.32 0-4.284.564-5.892 1.69-1.59 1.127-2.8 2.743-3.629 4.848-.812 2.104-1.218 4.632-1.218 7.582 0 3.115.414 5.725 1.243 7.83.845 2.088 2.063 3.662 3.654 4.723 1.591 1.044 3.505 1.566 5.742 1.566 1.276 0 2.42-.158 3.43-.472 1.012-.332 1.89-.804 2.636-1.417a7.34 7.34 0 0 0 1.814-2.213c.48-.878.804-1.864.97-2.958l14.02.1c-.166 2.154-.77 4.35-1.815 6.587-1.044 2.22-2.527 4.276-4.45 6.165-1.905 1.872-4.267 3.38-7.084 4.524-2.817 1.143-6.09 1.715-9.819 1.715-4.673 0-8.866-1.003-12.578-3.008-3.696-2.005-6.62-4.955-8.775-8.85C1.151 36.945.082 32.18.082 26.546c0-5.667 1.094-10.44 3.282-14.318C5.55 8.333 8.5 5.391 12.214 3.403 15.924 1.397 20.067.395 24.641.395c3.215 0 6.173.44 8.874 1.317 2.702.879 5.071 2.163 7.11 3.853 2.038 1.674 3.679 3.737 4.922 6.19 1.242 2.453 1.996 5.262 2.262 8.427ZM68 1.09l10.44 35.896h.399L89.279 1.09h15.611L88.086 52H69.194L52.39 1.09H68Z"/></svg>