<svg xmlns="http://www.w3.org/2000/svg" fill="none" viewBox="0 0 100 100"><g clip-path="url(#a)"><path fill="#000" d="M96.854 27.042 100 18.887l-.13-.504-31.137 8.196c3.321-4.804 2.18-8.658 2.18-8.658s-9.946 6.35-17.471 6.187c-7.517-.166-9.946-2.166-21.48 1.509-11.533 3.675-14.795 14.958-18.129 17.387C10.483 45.434 0 53.324 0 53.324l.025.143 9.458-3.017s-2.591 2.437-8.104 9.875l-.258-.238.008.046s4.433 6.775 8.78 5.517c.507-.16 1-.365 1.47-.613 1.746.975 4.03 1.93 6.55 2.188 0 0-1.708-1.98-3.133-4.238l.992-.641 3.604 1.325-.4-3.384c.012-.012.025-.012.033-.025l3.538 1.296-.438-3.075c.44-.233.888-.453 1.342-.658l3.687-13.938 15.259-10.404-1.213 3.054c-3.088 7.609-8.896 9.4-8.896 9.4l-2.425.917c-1.804 2.133-2.558 2.654-3.183 9.804 1.45-.366 2.841-.446 4.1-.116 6.517 1.754 8.779 9.612 7.02 11.779-.433.541-1.483 1.475-2.803 2.57h-2.638l-.033 2.142-.271.213h-2.688l-.037 2.1-.709.529c-2.529.046-5.72-2.158-5.72-2.158 0 2.004 1.67 5.104 1.67 5.104l.292-.142-.254.188s6.77 4.512 11.025 2.837c3.792-1.483 13.596-9.22 22.067-12.887l25.625-6.75 3.379-8.75-19.534 5.145v-7.87l22.917-6.034 3.38-8.75-26.292 6.925v-7.87l29.662-7.821ZM50.342 43.708l6.079-1.6.083.309-1.896 4.912-6.304 1.658 2.038-5.279Zm2.096 10.525-6.3 1.659 2.037-5.275 6.08-1.605.082.309-1.9 4.912Zm8.212-1.766-6.304 1.658 2.042-5.275 6.079-1.604.083.304-1.9 4.917Z"/></g><defs><clipPath id="a"><path fill="#fff" d="M0 0h100v100H0z"/></clipPath></defs></svg>