<svg xmlns="http://www.w3.org/2000/svg" fill="none" viewBox="0 0 100 100"><path fill="#fff" fill-rule="evenodd" d="M61.58 15.255a5 5 0 0 1 3.165 6.325l-20 60a5 5 0 1 1-9.49-3.16l20-60a5 5 0 0 1 6.325-3.165Zm-33.045 16.21a5 5 0 0 1 0 7.07L17.07 50l11.465 11.465a4.997 4.997 0 0 1 .062 7.132 5.001 5.001 0 0 1-7.132-.062l-15-15a5 5 0 0 1 0-7.07l15-15a5 5 0 0 1 7.07 0Zm42.93 0a5 5 0 0 1 7.07 0l15 15a5 5 0 0 1 0 7.07l-15 15a5.001 5.001 0 1 1-7.07-7.07L82.93 50 71.465 38.535a5 5 0 0 1 0-7.07Z" clip-rule="evenodd"/></svg>