<svg xmlns="http://www.w3.org/2000/svg" fill="none" viewBox="0 0 100 100"><g clip-path="url(#a)"><path fill="#F7DF1E" d="M0 0h100v100H0V0Z"/><path fill="#000" d="m26.294 83.567 7.652-4.631c1.477 2.618 2.82 4.832 6.041 4.832 3.088 0 5.035-1.207 5.035-5.906V45.91h9.397v32.085c0 9.733-5.705 14.164-14.029 14.164-7.518 0-11.881-3.894-14.096-8.593M59.524 82.56l7.652-4.43c2.014 3.29 4.632 5.706 9.263 5.706 3.894 0 6.377-1.947 6.377-4.632 0-3.222-2.55-4.363-6.847-6.242l-2.348-1.008c-6.78-2.886-11.278-6.51-11.278-14.163 0-7.048 5.37-12.419 13.76-12.419 5.975 0 10.271 2.081 13.359 7.519l-7.317 4.698c-1.611-2.886-3.356-4.027-6.041-4.027-2.752 0-4.498 1.745-4.498 4.027 0 2.82 1.746 3.961 5.773 5.707l2.35 1.006c7.987 3.424 12.485 6.914 12.485 14.768 0 8.458-6.646 13.09-15.573 13.09-8.727 0-14.366-4.162-17.117-9.6Z"/></g><defs><clipPath id="a"><path fill="#fff" d="M0 0h100v100H0z"/></clipPath></defs></svg>