<svg xmlns="http://www.w3.org/2000/svg" fill="none" viewBox="0 0 100 100"><path fill="#0769AD" d="M50 93.75c24.162 0 43.75-19.588 43.75-43.75C93.75 25.837 74.162 6.25 50 6.25 25.837 6.25 6.25 25.837 6.25 50c0 24.162 19.587 43.75 43.75 43.75Z"/><path fill="#78CFF5" d="M70.804 41.94c3.928 0 7.525-1.31 10.305-3.482-2.886 3.804-7.67 6.29-13.081 6.29-8.816 0-15.963-6.599-15.963-14.74 0-4.514 2.197-8.554 5.657-11.258-1.815 2.393-2.881 5.307-2.881 8.45 0 8.141 7.147 14.74 15.963 14.74Z"/><path fill="#78CFF5" d="M80.957 52.058c-4.234 3.322-9.717 5.326-15.705 5.326-13.416 0-24.292-10.057-24.292-22.462 0-4.812 1.636-9.27 4.422-12.925-5.253 4.12-8.587 10.268-8.587 17.136 0 12.406 10.876 22.463 24.292 22.463 8.213 0 15.474-3.769 19.87-9.538Z"/><path fill="#78CFF5" d="M81.25 64.906c-6.035 5.76-14.395 9.325-23.633 9.325-18.4 0-33.315-14.143-33.315-31.588a30.176 30.176 0 0 1 4.13-15.244c-5.984 5.71-9.682 13.578-9.682 22.264 0 17.445 14.915 31.587 33.315 31.587 12.568 0 23.512-6.6 29.185-16.344Z"/></svg>