<svg xmlns="http://www.w3.org/2000/svg" fill="none" viewBox="0 0 100 100"><g fill="#F35045" clip-path="url(#a)"><path d="M62.674 81.25c.781 1.129 1.258 1.042 1.866.781.607-.26 31.858-10.807 32.812-11.154.955-.347.651-.651.348-1.129-.304-.477-10.72-14.627-11.242-15.451-.52-.825-.781-.651-1.606-.39l-33.127 8.62S61.893 80.12 62.674 81.25ZM100 66.842V50.28l-10.302 2.743c2.808 3.757 7.197 9.635 10.302 13.819ZM89.666 32.625c-.51.116-11.815 2.16-12.512 2.252-.696.093-.464.487-.185.882l9.948 13.65s12.163-3.018 12.906-3.18l.177-.042v-1.808c-2.21-2.803-8.234-10.436-8.755-11.15-.627-.859-1.068-.72-1.579-.604Z"/><path d="M18.538 11.185c2.447-.111 2.671.446 3.746 2.04l27.02 45.173 33.974-8.138C81.396 47.59 72.85 35.476 72.024 34.32c-.928-1.3.024-1.904 1.533-2.159 1.508-.255 14.507-2.437 15.621-2.6 1.115-.162 1.997-.557 3.808 1.625.926 1.117 4.067 5.028 7.014 8.694V18.75c0-5.165-1.834-9.581-5.501-13.249C90.83 1.834 86.415 0 81.25 0h-62.5C13.585 0 9.169 1.834 5.501 5.501c-2.103 2.104-3.6 4.455-4.497 7.051 6.124-.503 15.82-1.289 17.534-1.367Z"/><path d="M65.738 87.33c-2.865.868-4.15 1.299-6.016-1.306-1.397-1.95-8.956-15.564-12.662-22.274-7.013 1.836-19.849 5.186-23.55 6.076-3.613.868-5.156-1.298-5.75-2.633C17.346 66.256 6.755 43.421 0 28.77v52.48c0 5.165 1.834 9.58 5.501 13.249C9.17 98.166 13.585 100 18.75 100h62.5c5.165 0 9.581-1.834 13.249-5.501C98.166 90.83 100 86.415 100 81.25v-6.165c-7.672 2.807-32.332 11.66-34.262 12.245Z"/><path d="M23.599 64.566c1.015-.233 20.044-4.787 20.45-4.874.406-.087.667-.319.232-1.073-.435-.754-25.365-43.785-25.365-43.785-.23-.395-.164-.527-.79-.494-.557.03-14.663 1.289-17.929 1.561-.096.69-.156 1.386-.18 2.083 3.315 6.787 22.344 46.03 22.45 46.35.116.348.116.464 1.132.232Z"/></g><defs><clipPath id="a"><path fill="#fff" d="M0 0h100v100H0z"/></clipPath></defs></svg>