<svg xmlns="http://www.w3.org/2000/svg" fill="none" viewBox="0 0 100 100"><g clip-path="url(#a)"><path fill="#000" d="m100.537 97.55-2.116-2.017a27.742 27.742 0 0 0-3.371-3.712l-.02-.017a57.481 57.481 0 0 0-3.88-3.225c-1.075-.739-2.553-1.629-4.433-2.67a6.668 6.668 0 0 1-3.409-3.434l-.016-.042-.2-.1c.883-.087 1.691-.25 2.466-.479l-.096.025 2.376-.654c.983-.308 2.12-.508 3.3-.554h.024c1.242-.05 2.413-.25 3.53-.58l-.104.026a37.09 37.09 0 0 0 1.662-.455c.57-.169 1.057-.32 1.463-.454v-.704a54.79 54.79 0 0 0-1.463-2.067 10.67 10.67 0 0 0-1.846-1.95l-.02-.016a105.484 105.484 0 0 0-5.43-4.484 65.781 65.781 0 0 0-5.462-3.816l-.284-.167c-1.025-.675-2.2-1.3-3.437-1.812l-.142-.05a52.479 52.479 0 0 1-3.679-1.663 6.824 6.824 0 0 0-1.362-.496l-.046-.008c-.488-.1-.904-.35-1.209-.704l-.004-.004a12.492 12.492 0 0 1-1.479-2.538l-.033-.083a32.64 32.64 0 0 0-1.309-2.713 166.396 166.396 0 0 1-2.925-5.946 207.58 207.58 0 0 1-2.712-6.05 71.416 71.416 0 0 1-1.663-4.029 22.478 22.478 0 0 0-1.92-3.925l.054.096a72.363 72.363 0 0 0-5.546-8.17l.117.158a60.703 60.703 0 0 0-6.08-6.625l-.033-.03a73.402 73.402 0 0 0-6.8-5.65l-.204-.145a105.132 105.132 0 0 0-8.167-5.342 15.42 15.42 0 0 0-4.02-1.638l-.109-.025-4.637-1.158-2.621-.2c-.873-.067-1.746-.1-2.621-.1a7 7 0 0 1-1.613-1.162c-.458-.438-.954-.85-1.47-1.23l-.042-.029c-2.521-1.47-5.45-2.816-8.513-3.875L8.63.75a5.55 5.55 0 0 0-2.8-.746C5.096.004 4.392.146 3.75.4l.038-.013a5.67 5.67 0 0 0-3.313 3.5l-.012.042a6.225 6.225 0 0 0-.48 2.421c0 1.533.542 2.937 1.446 4.033l-.008-.012c1.51 2.014 2.67 3.597 3.475 4.75.603.808 1.225 1.648 1.867 2.52.587.784 1.108 1.68 1.529 2.626l.033.087a9.3 9.3 0 0 1 .588 1.696l.012.067c.133.572.301 1.194.504 1.866a98.372 98.372 0 0 1 1.713 4.75 30.31 30.31 0 0 0 1.991 4.7l-.079-.166c.403.738.807 1.46 1.213 2.166.405.706.841 1.395 1.308 2.067.27.408.613.746 1.004 1.008l.013.009c.412.3.683.77.704 1.304a5.541 5.541 0 0 0-.904 2.446l-.005.025a17.615 17.615 0 0 1-.637 2.895l.033-.124c-.929 2.774-1.462 5.974-1.462 9.295 0 1.075.054 2.134.167 3.18l-.013-.13a23.595 23.595 0 0 0 3.383 10.834l-.058-.105c.82 1.23 1.7 2.3 2.67 3.28a3.809 3.809 0 0 0 2.85 1.275c.634 0 1.234-.154 1.76-.43l-.022.009c1.459-.525 2.496-1.859 2.571-3.446v-.008c.2-1.975.5-3.742.913-5.467l-.055.28a2.48 2.48 0 0 0 .15-1.068v.009c-.033-.303.152-.59.555-.858v.2c.402.941.822 1.881 1.258 2.82.436.94.889 1.88 1.358 2.821a35.158 35.158 0 0 0 3.967 5.008l-.012-.012a32.251 32.251 0 0 0 4.695 4.17l.092.063a16.288 16.288 0 0 1 2.358 2.2l.017.017a8.107 8.107 0 0 0 2.333 1.892l.042.02v-.1h.2a1.921 1.921 0 0 0-.75-.854l-.008-.004a7.616 7.616 0 0 1-.88-.566l.021.012a38.218 38.218 0 0 1-1.866-2.017 67.97 67.97 0 0 1-1.763-2.116 87.11 87.11 0 0 1-4.037-6.113 116.72 116.72 0 0 1-3.63-6.479 73.762 73.762 0 0 1-1.562-3.325l-1.462-3.325a4.153 4.153 0 0 1-.4-1.392v-.02c-.026-.48-.3-.892-.7-1.105l-.009-.004a12.28 12.28 0 0 1-1.7 2.271l.004-.004a8.226 8.226 0 0 0-1.591 2.416l-.021.055a17.802 17.802 0 0 0-1.204 4.808l-.009.08c-.2 1.78-.401 3.61-.604 5.49l-.2.1-.1.1a3.561 3.561 0 0 1-2.458-1.845l-.009-.02a41.479 41.479 0 0 1-1.358-2.876c-1.033-2.654-1.675-5.725-1.762-8.933v-.038a23.92 23.92 0 0 1-.055-1.7c0-2.775.438-5.45 1.246-7.958l-.05.183c.2-.739.636-1.983 1.309-3.733.672-1.75.807-2.96.404-3.63a3.65 3.65 0 0 0-1.104-1.708l-.005-.004c-.508-.441-.97-.904-1.395-1.395l-.013-.017c-.47-.678-.922-1.4-1.358-2.167a27.362 27.362 0 0 1-1.159-2.267c-.687-1.591-1.391-3.587-1.975-5.637l-.091-.37a42.39 42.39 0 0 0-2.275-6.263l.108.266a13.83 13.83 0 0 0-1.625-2.787l.025.033a53.366 53.366 0 0 1-1.817-2.57c-.677-.873-1.35-1.713-2.016-2.521A14.223 14.223 0 0 1 3.82 8.125l-.038-.083a6.825 6.825 0 0 1-.495-1.363l-.009-.046a1.66 1.66 0 0 1-.07-.487c0-.342.1-.663.274-.93l-.004.009c.046-.233.154-.438.304-.604.163-.146.371-.254.596-.3h.009c.354-.23.783-.367 1.25-.367.35 0 .687.08.983.221l-.013-.004c.913.258 1.65.516 2.371.812l-.15-.054a105.8 105.8 0 0 1 3.53 1.563c1.241.591 2.3 1.216 3.3 1.912l-.076-.05c.54.336 1.077.706 1.613 1.108.536.403 1.107.807 1.712 1.213h1.413a40.5 40.5 0 0 1 3.425.154c1.22.096 2.35.325 3.425.683l-.1-.029c2.004.596 3.725 1.3 5.358 2.146l-.17-.079a56.04 56.04 0 0 1 4.687 2.67 52.845 52.845 0 0 1 6.57 4.81l-.07-.06a66.12 66.12 0 0 1 5.75 5.547l.041.05a60.71 60.71 0 0 1 4.9 6.1l.13.195a63.512 63.512 0 0 1 4.058 6.6l.175.355c.337.641.68 1.429.975 2.233l.046.138c.27.772.57 1.563.904 2.374.739 1.681 1.53 3.377 2.375 5.088a186.28 186.28 0 0 1 2.375 4.992l2.217 4.837c.779 1.692 1.65 3.15 2.662 4.496l-.046-.063a5.808 5.808 0 0 0 3.242 1.759l.033.004c1.534.383 2.825.817 4.075 1.33l-.196-.072c.596.271 1.363.559 2.15.813l.167.046c.883.27 1.65.629 2.354 1.079l-.037-.021a32.863 32.863 0 0 1 3.616 2.33l-.087-.063a74.73 74.73 0 0 0 3.425 2.375c.539.402 1.443.99 2.713 1.762 1.269.772 1.941 1.495 2.016 2.167a46.574 46.574 0 0 0-7.642.362l.234-.025c-2.233.3-4.258.846-6.163 1.625l.167-.058a10.64 10.64 0 0 1-1.617.537l-.079.017a1.3 1.3 0 0 0-1.108 1.154c.254.317.458.688.596 1.088l.008.025c.142.425.313.791.52 1.133l-.012-.025a14.44 14.44 0 0 0 1.63 2.338l-.017-.021c.587.725 1.25 1.354 1.983 1.892l.03.02c.677.54 1.383 1.093 2.116 1.663.67.525 1.43 1.041 2.217 1.508l.1.054a27.435 27.435 0 0 0 3.991 1.996l.192.067a20.508 20.508 0 0 1 4.138 2.212l-.067-.046c.808.47 1.614.99 2.416 1.563.803.572 1.576 1.126 2.317 1.662.304.3.571.634.796.996l.012.021c.38.433.905.73 1.5.804h.013v-.2a2.15 2.15 0 0 1-.767-1.112l-.004-.017a3.936 3.936 0 0 0-.467-1.137l.009.016.016.017Zm-77.4-80.02c-.538 0-1.043.016-1.512.05-.48.033-.925.12-1.346.262l.038-.013v.1h.2c.27.403.608.856 1.016 1.359.409.502.778.99 1.109 1.462l1.612 3.325.2-.1c.471-.342.834-.8 1.05-1.338l.008-.02c.217-.58.342-1.255.342-1.954 0-.076 0-.15-.004-.226v.013a2.101 2.101 0 0 1-.45-.642l-.004-.012-.338-.758c-.22-.35-.529-.625-.891-.8l-.013-.005a3.879 3.879 0 0 1-1.017-.704Z"/></g><defs><clipPath id="a"><path fill="#fff" d="M0 0h100v100H0z"/></clipPath></defs></svg>