<svg xmlns="http://www.w3.org/2000/svg" fill="none" viewBox="0 0 100 100"><g clip-path="url(#a)"><path fill="#689F63" d="M49.579 100c-1.34 0-2.67-.351-3.844-1.027L33.502 91.73c-1.827-1.022-.935-1.383-.333-1.591 2.437-.853 2.93-1.046 5.531-2.523.273-.156.631-.1.911.065l9.398 5.576c.34.184.82.184 1.136 0l36.643-21.151c.34-.193.56-.587.56-.99V28.83c0-.422-.22-.798-.567-1.009L50.15 6.689a1.127 1.127 0 0 0-1.127 0L12.402 27.822c-.355.202-.58.596-.58 1v42.284c0 .404.22.79.568.982l10.035 5.797c5.448 2.724 8.778-.487 8.778-3.715V32.436c0-.596.468-1.055 1.064-1.055h4.64a1.05 1.05 0 0 1 1.056 1.055v41.752c0 7.265-3.963 11.438-10.851 11.438-2.119 0-3.788 0-8.448-2.293l-9.612-5.54a7.748 7.748 0 0 1-3.844-6.687V28.822c0-2.752 1.468-5.32 3.844-6.678L45.732.984c2.32-1.312 5.402-1.312 7.705 0l36.634 21.17a7.73 7.73 0 0 1 3.843 6.677v42.284a7.753 7.753 0 0 1-3.843 6.678l-36.634 21.16a7.701 7.701 0 0 1-3.862 1.028l.004.019Zm11.318-29.137c-16.033 0-19.395-7.36-19.395-13.533 0-.587.474-1.054 1.062-1.054h4.733c.522 0 .963.38 1.045.896.716 4.823 2.844 7.256 12.539 7.256 7.723 0 11.007-1.745 11.007-5.84 0-2.358-.936-4.11-12.933-5.283-10.035-.991-16.236-3.202-16.236-11.227 0-7.393 6.238-11.796 16.685-11.796 11.731 0 17.547 4.073 18.28 12.823a1.068 1.068 0 0 1-1.063 1.156H71.86c-.495 0-.926-.349-1.027-.826-1.147-5.072-3.917-6.696-11.447-6.696-8.43 0-9.411 2.936-9.411 5.137 0 2.669 1.156 3.449 12.53 4.953 11.263 1.495 16.61 3.605 16.61 11.52 0 7.98-6.659 12.557-18.27 12.557l.052-.043Z"/></g><defs><clipPath id="a"><path fill="#fff" d="M0 0h100v100H0z"/></clipPath></defs></svg>