<svg xmlns="http://www.w3.org/2000/svg" fill="none" viewBox="0 0 100 100"><path fill="#000" fill-rule="evenodd" d="M31.5 64.125a11.917 11.917 0 0 0-7.875-1.625h-6.958v25h5.541v-9.542h2.375a10.75 10.75 0 0 0 7-1.708 7.542 7.542 0 0 0 2.625-6.042 7.292 7.292 0 0 0-2.708-6.083Zm-4.458 9.125a6.415 6.415 0 0 1-3.334.5h-1.625v-7.083h1.625a5.917 5.917 0 0 1 3.417.666 3.417 3.417 0 0 1 1.458 3 2.958 2.958 0 0 1-1.541 2.917ZM46.125 62.5h-6.917v25h6.625c3.377.33 6.777-.32 9.792-1.875A11.75 11.75 0 0 0 60.292 75a12.5 12.5 0 0 0-3.459-9.542A14.334 14.334 0 0 0 46.125 62.5Zm5.5 19.333a10 10 0 0 1-5.708 1.25h-1.084V66.917h1c3.5 0 4.875.333 6.25 1.583a8.584 8.584 0 0 1 2.375 6.5 8.084 8.084 0 0 1-2.833 6.833Zm14.75 5.667H72V77.042h11.333v-4.417H72v-5.708h11.333V62.5H66.375v25ZM62.5 8.333H16.667v45.834H25v-37.5h34.042L75 32.625v21.542h8.333v-25L62.5 8.333Z" clip-rule="evenodd"/></svg>