<svg xmlns="http://www.w3.org/2000/svg" fill="none" viewBox="0 0 100 100"><g clip-path="url(#a)"><path fill="#777BB3" d="M85 0H15C6.716 0 0 6.716 0 15v70c0 8.284 6.716 15 15 15h70c8.284 0 15-6.716 15-15V15c0-8.284-6.716-15-15-15Z"/><path fill="#000" stroke="#fff" stroke-width="2" d="M30.273 39.453H18.945a.586.586 0 0 0-.586.39l-5.273 27.54c0 .586.586.586.586.586h5.86c.585 0 .585-.39.585-.39l1.367-6.837h5.274c8.203 0 12.305-5.469 13.281-10.351.977-4.883.195-10.938-9.766-10.938ZM32.813 50c-.782 3.71-3.32 5.273-6.836 5.273H22.46l2.148-10.351h3.516c5.273 0 5.078 1.953 4.688 5.078ZM53.71 60.742c-.78 0-.585-.781-.585-.781l2.344-11.914c0-1.563 1.172-3.125-3.516-2.93h-3.516l-2.93 15.235s0 .586-.78.586h-5.664c-.586 0-.586-.586-.586-.586l5.468-27.54s0-.39.782-.39h5.859c.586 0 .39.586.39.586l-1.367 6.64h5.078c7.032 0 8.79 3.32 8.204 7.227l-2.54 13.477s0 .586-.976.586l-5.664-.196ZM76.953 39.453H65.625a.586.586 0 0 0-.586.39l-5.273 27.54c0 .586.586.586.586.586h5.859c.586 0 .586-.39.586-.39l1.367-6.837h5.273c8.204 0 12.305-5.469 13.282-10.351.976-4.883.195-10.938-9.766-10.938ZM79.493 50c-.782 3.71-3.321 5.273-6.837 5.273h-3.515l2.148-10.351h3.516c5.273 0 5.078 1.953 4.687 5.078Z"/></g><defs><clipPath id="a"><path fill="#fff" d="M0 0h100v100H0z"/></clipPath></defs></svg>