<svg xmlns="http://www.w3.org/2000/svg" fill="none" viewBox="0 0 100 100"><path fill="#000" d="M98.11 59.881c-.582-1.76-2.106-2.987-4.075-3.282-.929-.138-1.993-.08-3.251.18-2.194.453-3.822.625-5.01.658 4.484-7.57 8.13-16.202 10.229-24.328 3.394-13.14 1.58-19.126-.54-21.834C89.856 4.11 81.673.26 71.8.141c-5.266-.064-9.89.975-12.301 1.723-2.246-.396-4.66-.617-7.193-.658-4.75-.076-8.945.96-12.53 3.087a57.13 57.13 0 0 0-8.85-2.221C22.275.652 15.302 1.758 10.2 5.362c-6.177 4.362-9.04 11.942-8.51 22.53.168 3.361 2.048 13.588 5.009 23.287 1.701 5.575 3.516 10.205 5.393 13.762 2.661 5.043 5.51 8.013 8.707 9.08 1.792.597 5.048 1.015 8.473-1.837.434.526 1.013 1.048 1.781 1.533.976.616 2.17 1.119 3.362 1.417 4.296 1.074 8.32.805 11.753-.7.021.61.037 1.194.05 1.698.024.817.046 1.618.076 2.367.204 5.066.548 9.005 1.57 11.761.056.152.131.383.21.628.51 1.56 1.362 4.171 3.53 6.216 2.244 2.119 4.959 2.768 7.445 2.768 1.247 0 2.437-.163 3.48-.387 3.72-.797 7.944-2.011 11-6.363 2.89-4.114 4.294-10.31 4.549-20.072l.092-.79.06-.517.681.06.176.012c3.788.172 8.421-.63 11.266-1.953 2.248-1.043 9.452-4.846 7.756-9.98Z"/><path fill="#336791" d="M91.631 60.88c-11.265 2.323-12.04-1.49-12.04-1.49 11.894-17.65 16.867-40.052 12.576-45.535-11.706-14.957-31.97-7.883-32.308-7.7l-.108.02c-2.226-.462-4.716-.737-7.516-.783-5.097-.083-8.964 1.336-11.898 3.561 0 0-36.148-14.891-34.466 18.73.357 7.151 10.251 54.118 22.052 39.932 4.313-5.188 8.481-9.574 8.481-9.574 2.07 1.375 4.548 2.077 7.146 1.825l.202-.171c-.063.644-.035 1.273.08 2.02-3.04 3.396-2.146 3.992-8.224 5.243-6.15 1.268-2.537 3.524-.178 4.114 2.86.715 9.474 1.728 13.944-4.53l-.178.714c1.191.955 2.028 6.206 1.887 10.967-.14 4.76-.233 8.03.705 10.582.939 2.553 1.874 8.298 9.864 6.586 6.675-1.43 10.134-5.138 10.616-11.322.341-4.396 1.114-3.746 1.163-7.677l.62-1.86c.715-5.96.113-7.883 4.226-6.989l1 .088c3.026.138 6.989-.487 9.314-1.567 5.007-2.324 7.976-6.204 3.04-5.184Z"/><path fill="#fff" d="M42.453 30.88c-1.015-.14-1.934-.01-2.4.342a.88.88 0 0 0-.364.586c-.058.419.235.881.415 1.12.51.676 1.255 1.14 1.992 1.242.107.016.213.022.319.022 1.229 0 2.347-.957 2.445-1.663.123-.885-1.161-1.475-2.407-1.648Zm33.63.029c-.097-.694-1.33-.892-2.502-.729-1.17.163-2.304.691-2.209 1.386.076.54 1.052 1.463 2.207 1.463.098 0 .196-.006.296-.02.77-.107 1.337-.596 1.606-.879.409-.43.646-.91.602-1.221Z"/><path fill="#fff" d="M95.38 60.615c-.43-1.298-1.813-1.716-4.11-1.242-6.82 1.408-9.262.433-10.064-.158 5.301-8.076 9.662-17.838 12.015-26.946 1.114-4.314 1.73-8.32 1.78-11.587.056-3.584-.555-6.218-1.814-7.827C88.111 6.367 80.66 2.887 71.641 2.793c-6.2-.07-11.44 1.517-12.455 1.963a31.05 31.05 0 0 0-7.008-.9c-4.654-.075-8.678 1.039-12.01 3.31a53.607 53.607 0 0 0-9.758-2.558c-7.907-1.273-14.19-.309-18.672 2.867-5.35 3.79-7.82 10.566-7.341 20.137.16 3.22 1.995 13.126 4.89 22.613C13.1 62.71 17.243 69.779 21.603 71.234c.51.17 1.098.289 1.747.289 1.59 0 3.54-.717 5.568-3.156a200.667 200.667 0 0 1 7.675-8.684 12.365 12.365 0 0 0 5.521 1.485l.014.15c-.332.396-.657.797-.974 1.204-1.334 1.693-1.612 2.046-5.906 2.93-1.222.252-4.466.92-4.514 3.195-.051 2.485 3.836 3.528 4.278 3.639 1.543.386 3.03.577 4.448.577 3.448 0 6.483-1.133 8.908-3.326-.075 8.858.294 17.587 1.358 20.246.871 2.178 3 7.498 9.721 7.498.987 0 2.072-.115 3.267-.37 7.015-1.505 10.062-4.605 11.24-11.441.63-3.654 1.713-12.378 2.222-17.057 1.074.335 2.457.489 3.952.488 3.119 0 6.717-.662 8.973-1.71 2.535-1.177 7.11-4.066 6.28-6.576Zm-16.707-31.62c-.023 1.38-.213 2.635-.415 3.944-.217 1.408-.441 2.864-.498 4.63-.056 1.72.16 3.508.367 5.237.42 3.493.85 7.088-.817 10.636-.277-.49-.523-.998-.738-1.519-.208-.502-.658-1.309-1.28-2.425-2.425-4.347-8.1-14.527-5.195-18.68.866-1.237 3.062-2.508 8.576-1.824ZM71.989 5.59c8.081.179 14.474 3.202 19 8.985 3.47 4.436-.352 24.62-11.417 42.034a65.541 65.541 0 0 0-.336-.423l-.14-.175c2.86-4.723 2.3-9.395 1.803-13.538-.205-1.7-.398-3.305-.349-4.814.051-1.598.263-2.97.467-4.295.251-1.634.507-3.324.436-5.317.053-.21.074-.456.047-.75-.18-1.91-2.362-7.63-6.81-12.806-2.432-2.832-5.979-6-10.823-8.137 2.084-.432 4.933-.835 8.122-.764ZM26.77 66.582c-2.234 2.688-3.778 2.172-4.285 2.004-3.307-1.103-7.144-8.093-10.527-19.176-2.927-9.59-4.638-19.234-4.774-21.938-.427-8.552 1.646-14.513 6.163-17.716 7.35-5.212 19.434-2.092 24.29-.51-.07.07-.143.133-.212.204-7.968 8.047-7.78 21.795-7.76 22.636 0 .324.027.783.064 1.414.137 2.313.393 6.617-.29 11.49-.633 4.53.764 8.963 3.83 12.163.316.328.646.64.992.935a204.968 204.968 0 0 0-7.49 8.494Zm8.515-11.36c-2.472-2.58-3.594-6.168-3.08-9.845.72-5.149.454-9.633.31-12.042-.02-.337-.037-.632-.047-.865 1.164-1.033 6.558-3.923 10.405-3.041 1.755.402 2.825 1.597 3.27 3.653 2.301 10.645.304 15.082-1.3 18.648-.33.734-.643 1.428-.91 2.147l-.207.555c-.523 1.404-1.01 2.709-1.312 3.948-2.628-.007-5.185-1.13-7.129-3.159Zm.404 14.356c-.768-.192-1.458-.525-1.863-.801.338-.16.94-.376 1.984-.591 5.052-1.04 5.832-1.774 7.536-3.937.39-.496.834-1.058 1.447-1.743v-.001c.914-1.023 1.332-.85 2.09-.535.613.254 1.211 1.023 1.454 1.87.114.4.243 1.16-.178 1.75-3.56 4.984-8.746 4.92-12.47 3.988ZM62.128 94.18c-6.18 1.324-8.369-1.83-9.811-5.434-.93-2.328-1.388-12.822-1.064-24.412a1.396 1.396 0 0 0-.06-.443 5.866 5.866 0 0 0-.172-.82c-.483-1.686-1.66-3.096-3.07-3.681-.56-.232-1.59-.658-2.826-.342.264-1.087.72-2.313 1.217-3.642l.208-.559c.234-.63.528-1.282.838-1.973 1.68-3.73 3.979-8.84 1.483-20.383-.935-4.323-4.057-6.434-8.79-5.944-2.836.294-5.432 1.438-6.727 2.095-.278.14-.533.277-.77.41.36-4.357 1.726-12.497 6.833-17.648 3.215-3.243 7.497-4.844 12.715-4.758 10.28.168 16.872 5.444 20.593 9.84 3.206 3.79 4.942 7.605 5.635 9.664-5.21-.53-8.754.498-10.55 3.066-3.908 5.587 2.138 16.43 5.043 21.64.533.955.993 1.78 1.138 2.131.946 2.293 2.171 3.824 3.065 4.942.275.342.54.675.743.965-1.578.455-4.413 1.506-4.154 6.76-.209 2.636-1.69 14.98-2.443 19.34-.993 5.762-3.113 7.908-9.074 9.186Zm25.797-29.522c-1.614.75-4.314 1.311-6.88 1.432-2.833.132-4.275-.318-4.615-.594-.159-3.275 1.06-3.617 2.35-3.979.202-.057.4-.112.59-.179.12.097.25.192.392.286 2.277 1.503 6.339 1.666 12.073.482l.063-.013c-.773.723-2.097 1.694-3.973 2.565Z"/></svg>