<svg xmlns="http://www.w3.org/2000/svg" fill="none" viewBox="0 0 100 100"><g clip-path="url(#a)"><path fill="#000" d="M90.746 75.974 56.452 3.145A5.504 5.504 0 0 0 51.765.012a5.442 5.442 0 0 0-5.01 2.597L9.559 62.854a5.634 5.634 0 0 0 .062 6.048l18.186 28.161a5.849 5.849 0 0 0 6.568 2.416l52.774-15.61a5.784 5.784 0 0 0 3.632-3.136 5.659 5.659 0 0 0-.032-4.762l-.003.003Zm-7.678 3.123L38.286 92.34c-1.366.407-2.677-.777-2.393-2.156l16-76.608c.299-1.433 2.278-1.66 2.904-.334l29.617 62.895a2.139 2.139 0 0 1-1.348 2.961h.002Z"/></g><defs><clipPath id="a"><path fill="#fff" d="M0 0h100v100H0z"/></clipPath></defs></svg>