<svg xmlns="http://www.w3.org/2000/svg" fill="none" viewBox="0 0 100 100"><g clip-path="url(#a)"><path fill="#fff" d="M49.633 99.999C22.988 99.815-.18 77.703 0 49.609.174 22.576 22.637-.183 50.434 0c27.014.18 49.805 22.603 49.564 50.075.224 27.222-22.68 50.115-50.365 49.923Zm0 0C22.988 99.815-.18 77.703 0 49.609.174 22.576 22.637-.183 50.434 0c27.014.18 49.805 22.603 49.564 50.075.224 27.222-22.68 50.115-50.365 49.923Z"/><path fill="#49A32B" d="M49.681 93.358c-23.106-.16-43.195-19.335-43.04-43.697.15-23.443 19.63-43.18 43.735-43.02 23.427.156 43.191 19.602 42.982 43.425.194 23.607-19.668 43.46-43.677 43.292Zm0 0c-23.106-.16-43.195-19.335-43.04-43.697.15-23.443 19.63-43.18 43.735-43.02 23.427.156 43.191 19.602 42.982 43.425.194 23.607-19.668 43.46-43.677 43.292Z"/><path fill="#fff" d="M66.144 49.983c-.112 2.066-1.917 3.782-3.696 3.483h-.027a3.568 3.568 0 0 1-3.572-3.564 3.623 3.623 0 0 1 3.682-3.5c1.971.01 3.719 1.675 3.613 3.58Zm-31.69 20.025c.743.022 1.486.006 2.343.006v5.385c-5.326.9-9.713-.612-10.79-5.114a29.887 29.887 0 0 1-.678-5.034c-.114-1.793.084-3.607-.053-5.397-.379-4.927-1.017-6.609-5.745-6.842v-6.131c.34-.08.683-.138 1.028-.177 2.592-.127 3.685-.922 4.265-3.475.264-1.435.42-2.887.466-4.345.206-2.82.133-5.684.602-8.457.68-4.011 3.169-5.96 7.282-6.178 1.17-.062 2.344-.01 3.67-.01v5.505c-.546.039-1.046.118-1.543.103-3.351-.102-3.525 1.04-3.77 3.813-.152 1.74.059 3.51-.06 5.256a41.827 41.827 0 0 1-.696 5.174c-.483 2.476-2.005 4.317-4.115 5.88 4.095 2.665 4.561 6.806 4.827 11.01.143 2.26.078 4.536.307 6.784.179 1.746.857 2.19 2.66 2.244Zm3.451-23.606h.063a3.546 3.546 0 0 1 3.488 3.604 3.47 3.47 0 0 1-3.67 3.457 3.533 3.533 0 1 1 .12-7.062Zm12.202 0c2.141-.017 3.564 1.371 3.575 3.488.011 2.174-1.337 3.565-3.465 3.574-2.163.01-3.588-1.359-3.6-3.463a3.387 3.387 0 0 1 3.49-3.599Zm25.547-2.682c.57 2.128 1.678 2.876 3.918 2.978.367.017.733.079 1.236.135v6.13c-.273.089-.552.156-.835.2-3.002.186-4.37 1.418-4.673 4.427-.194 1.922-.178 3.864-.31 5.792a49.134 49.134 0 0 1-.577 6.32c-.766 3.791-3.133 5.682-7.043 5.913-1.258.074-2.526.011-3.883.011v-5.478c.73-.045 1.375-.108 2.021-.123 2.337-.056 3.163-.81 3.277-3.13.127-2.548.182-5.1.296-7.65.165-3.685 1.174-6.977 4.607-9.275-1.964-1.401-3.541-3.097-3.95-5.384-.494-2.773-.654-5.606-.92-8.417-.13-1.406-.124-2.823-.262-4.228-.148-1.516-1.19-2.04-2.569-2.074-.79-.02-1.584-.004-2.595-.004v-5.35c6.45-1.07 10.904 1.075 11.318 7.245.173 2.591.148 5.195.314 7.786.073 1.41.283 2.808.63 4.176Z"/></g><defs><clipPath id="a"><path fill="#fff" d="M0 0h100v100H0z"/></clipPath></defs></svg>