<svg xmlns="http://www.w3.org/2000/svg" fill="none" viewBox="0 0 100 100"><path fill="#44A8B3" d="M28.125 42.813c2.917-11.667 10.208-17.5 21.875-17.5 17.5 0 19.688 13.125 28.438 15.312 5.833 1.458 10.937-.73 15.312-6.563-2.917 11.667-10.208 17.5-21.875 17.5-17.5 0-19.688-13.124-28.438-15.312-5.833-1.458-10.937.73-15.312 6.563ZM6.25 69.063c2.917-11.667 10.208-17.5 21.875-17.5 17.5 0 19.688 13.124 28.438 15.312 5.833 1.458 10.937-.73 15.312-6.563-2.917 11.667-10.208 17.5-21.875 17.5-17.5 0-19.688-13.124-28.438-15.312-5.833-1.458-10.937.73-15.312 6.563Z"/></svg>