<svg xmlns="http://www.w3.org/2000/svg" fill="none" viewBox="0 0 100 100"><g clip-path="url(#a)"><path fill="#007ACC" d="M0 50v50h100V0H0v50Z"/><path fill="#fff" d="m22.114 50.332-.032 4.095h13.016V91.41h9.206V54.427H57.32V50.41c0-2.222-.048-4.08-.111-4.127-.048-.063-7.968-.095-17.572-.08l-17.476.048-.047 4.08ZM80.69 46.136c2.54.635 4.476 1.762 6.254 3.603.92.984 2.286 2.778 2.397 3.207.032.127-4.318 3.047-6.953 4.682-.095.064-.476-.349-.904-.984-1.286-1.873-2.635-2.682-4.699-2.825-3.031-.207-4.984 1.38-4.968 4.031 0 .778.111 1.239.429 1.873.666 1.381 1.904 2.207 5.793 3.89 7.159 3.079 10.222 5.11 12.127 8 2.127 3.222 2.603 8.364 1.159 12.19-1.587 4.159-5.524 6.984-11.064 7.92-1.714.302-5.777.254-7.619-.079-4.015-.714-7.825-2.698-10.174-5.302-.92-1.015-2.714-3.666-2.603-3.857.047-.063.46-.317.92-.587a915.86 915.86 0 0 0 3.715-2.143l2.873-1.666.603.888c.841 1.286 2.682 3.048 3.793 3.635 3.19 1.683 7.572 1.445 9.73-.492.921-.841 1.302-1.714 1.302-3 0-1.159-.143-1.666-.746-2.54-.778-1.11-2.365-2.047-6.873-4-5.159-2.222-7.38-3.603-9.413-5.793-1.174-1.27-2.285-3.302-2.746-5-.38-1.413-.476-4.953-.174-6.381 1.063-4.984 4.825-8.46 10.254-9.492 1.762-.333 5.857-.206 7.587.222Z"/></g><defs><clipPath id="a"><path fill="#fff" d="M0 0h100v100H0z"/></clipPath></defs></svg>