<svg xmlns="http://www.w3.org/2000/svg" fill="none" viewBox="0 0 100 100"><g clip-path="url(#a)"><path fill="#000" fill-rule="evenodd" d="M69.896.002H.001v49.74h10V9.95h50v29.844h30v9.947h10V32.025L69.896.002ZM55.001 75.133c0-2.75-2.24-4.974-5-4.974h-5v9.948h5c2.76 0 5-2.228 5-4.974Zm3.62 11.788 6.38 12.559h-10l-5-9.948h-5v9.948h-10V59.69h15c8.285 0 15 6.938 15 15.18 0 5.043-2.53 9.35-6.38 12.051Zm21.38-27.232h-10V99.48h30v-9.948h-20V59.69Zm-60 0h10v25.392c0 8.236-6.715 14.921-15 14.921s-15-6.685-15-14.921V59.689h10v25.392c0 2.745 2.24 4.974 5 4.974s5-2.229 5-4.974V59.689Z" clip-rule="evenodd"/></g><defs><clipPath id="a"><path fill="#fff" d="M0 0h100v100H0z"/></clipPath></defs></svg>