<svg width="250" height="50" viewBox="0 0 250 50" fill="none" xmlns="http://www.w3.org/2000/svg">
<path d="M25.8777 7.45745L2.31701 20.3564C0.617518 21.2447 0 22 0 23.9947V29.2074C0 31.2021 0.617518 31.883 2.31701 32.7713L25.8777 45.7447C28.0575 46.9734 28.8756 46.0851 28.8756 43.5532V36.617C28.8756 33.3936 28.2633 32.9149 26.2155 31.883L15.2585 26.5319V26.2553L26.2841 20.9043C28.2634 19.8723 28.8756 19.3245 28.8756 16.1649V9.64894C28.8756 7.11702 28.0575 6.21809 25.8777 7.45745ZM78.5937 46.25L63.1083 3.30851C62.438 1.54787 61.5724 1.06383 59.6249 1.06383H51.9824C50.0454 1.06383 49.1693 1.4734 48.499 3.44149L33.0768 46.25C32.4118 48.0213 32.8129 48.9362 34.8924 48.9362H41.9279C45.2741 48.9362 46.1503 48.2234 46.8206 46.1862L48.3617 41.4628H62.8444L64.3855 46.1862C64.9186 48.2234 65.9267 48.9362 69.4049 48.9362H76.6462C78.6571 48.9362 79.2588 48.0213 78.5937 46.25ZM57.3395 22.8883L59.8254 30.8511H51.4441L53.9247 22.8245C55.2653 18.2606 55.1967 13.3617 55.1967 13.3617H55.8722C55.8722 13.3617 56.0042 18.2606 57.3395 22.8883ZM79.8235 18.9255V31.0851C79.8235 42.7766 87.2601 50 100.466 50C110.789 50 117.223 45.7447 120.036 38.1808C120.712 36.2181 120.242 35.2074 118.226 34.5319L111.053 31.9628C109.042 31.2234 108.24 31.6968 107.432 33.7926C106.361 36.6915 104.218 38.1808 100.466 38.1808C95.1717 38.1808 93.0922 35.8883 93.0922 31.1596V18.8564C93.0922 14.1277 95.1717 11.8245 100.466 11.8245C104.218 11.8245 106.229 13.1809 107.432 16.2234C108.177 18.3191 108.974 18.6489 111.053 18.0426L118.226 15.4734C120.242 14.8032 120.712 13.7872 120.036 11.8245C117.223 4.26596 110.789 0 100.466 0C87.2601 0 79.8235 7.22872 79.8235 18.9255ZM171.005 1.06383H164.302C162.091 1.06383 161.489 1.40425 160.55 3.2234L149.492 24.9681L138.43 3.14893C137.49 1.4734 136.825 1.06383 134.471 1.06383H128.175C126.027 1.06383 125.293 1.73936 125.293 3.89894V46.1755C125.293 48.2606 126.027 48.9362 128.175 48.9362H135.01C137.163 48.9362 137.897 48.2606 137.897 46.1755V36.617C137.897 31.9734 137.559 28.6064 135.152 18.9096H135.817C136.487 21.266 138.562 27.4574 139.976 30.0213L143.924 37.6223C144.668 39.1117 145.333 39.5798 147.149 39.5798H151.635C153.451 39.5798 154.116 38.9734 154.849 37.6223L158.602 30.0213C160.011 27.2606 162.429 21.133 163.099 18.9096H163.832C161.294 27.867 160.887 32.1064 160.887 36.5532V46.1755C160.887 48.2606 161.558 48.9362 163.7 48.9362H171.005C173.153 48.9362 173.892 48.2606 173.892 46.1755V3.89894C173.892 1.73936 173.153 1.06383 171.005 1.06383ZM212.21 1.06383H184.121C181.973 1.06383 181.239 1.81383 181.239 3.90425V46.1011C181.239 48.1968 181.973 48.9362 184.121 48.9362H212.812C214.886 48.9362 215.63 48.1968 215.63 46.1011V39.9521C215.63 37.7925 214.886 37.117 212.812 37.117H194.508V30.8511H208.653C210.796 30.8511 211.54 30.1117 211.54 27.9521V21.867C211.54 19.7819 210.796 19.0319 208.653 19.0319H194.508V12.8883H212.21C214.353 12.8883 215.092 12.1436 215.092 9.98404V3.90425C215.092 1.81383 214.353 1.06383 212.21 1.06383ZM221.13 9.58511V16.3085C221.13 19.4628 221.673 20.0106 223.721 21.0426L234.678 26.3936V26.7394L223.784 32.0213C221.673 33.0426 221.13 33.6011 221.13 36.75V43.5532C221.13 46.0851 221.879 46.9096 224.133 45.7447L247.683 32.7713C249.382 31.883 250 31.2021 250 29.2074V23.9202C250 22 249.382 21.2447 247.683 20.3564L224.133 7.45745C221.879 6.21809 221.13 7.11702 221.13 9.58511Z" fill="white"/>
</svg>